<?xml version="1.0" encoding="utf-8"?>
<!-- Generator: Adobe Illustrator 13.0.2, SVG Export Plug-In . SVG Version: 6.00 Build 14948)  -->
<!DOCTYPE svg PUBLIC "-//W3C//DTD SVG 1.0//EN" "http://www.w3.org/TR/2001/REC-SVG-20010904/DTD/svg10.dtd">
<svg version="1.0" id="Layer_1" xmlns="http://www.w3.org/2000/svg" xmlns:xlink="http://www.w3.org/1999/xlink" x="0px" y="0px"
	 width="300px" height="172.885px" viewBox="0 0 300 172.885" enable-background="new 0 0 300 172.885" xml:space="preserve">
<g>
	<path fill="#FFD80E" d="M300,159.186c0,7.563-6.133,13.699-13.698,13.699H13.697C6.136,172.885,0,166.75,0,159.186V13.699
		C0,6.136,6.136,0,13.697,0h272.605C293.868,0,300,6.136,300,13.699V159.186z"/>
	<path fill="#006C85" d="M53.285,36.021c-3.267,1.204-10.873,5.698-10.873,8.25c0,2.246,4.348,2.397,4.348,5.922
		c0,2.474-3.152,4.198-6.632,4.198c-4.127,0-6.408-2.472-6.408-5.097c0-6.896,9.998-12.068,18.039-15.07L53.285,36.021z"/>
	<path fill="#006C85" d="M72.391,77.259c3.152-3.752,10.001-12.596,10.001-16.645c0-3.824-2.935-5.171-2.935-7.796
		c0-2.1,2.17-4.124,5.326-4.124c4.564,0,5.974,3.225,5.974,5.922c0,7.271-10.432,20.543-15.975,26.992
		c-5.87,6.747-17.935,18.969-30.761,18.969c-3.263,0-6.849-1.126-6.849-3.75c0-2.322,3.586-3.746,6.628-3.746
		c2.721,0,5.112,0.748,7.5,0.748c5.547,0,10.983-5.924,14.025-8.695l-6.959-27.069c-0.213-0.748-0.324-2.998-1.846-2.998
		c-2.395,0-4.458,5.774-5.433,7.047l-3.369-0.673c2.174-3.599,6.628-12.745,13.37-12.745c4.778,0,5.212,4.949,5.867,7.197
		L72.391,77.259z"/>
	<path fill="#006C85" d="M131.078,75.911c-4.565,5.245-12.823,11.094-22.283,11.094c-9.674,0-14.676-5.698-14.676-11.919
		c0-9.899,14.024-26.391,29.896-26.391c5.65,0,10.435,2.397,10.435,6.595c0,9.297-18.917,15.972-29.896,18.521
		c-0.213,1.201-0.324,2.248-0.324,3.221c0,5.624,2.825,6.601,6.415,6.601c6.845,0,14.128-5.323,17.608-8.999L131.078,75.911z
		 M127.165,55.142c0-1.577-1.085-3.075-3.583-3.075c-5.436,0-15.221,7.123-18.483,18.969
		C113.794,69.01,127.165,61.964,127.165,55.142"/>
	<path fill="#006C85" d="M136.387,79.435c0-2.024,2.174-3.824,5.216-3.824c7.827,0,3.7,8.022,13.046,8.022
		c4.782,0,8.044-2.25,8.044-5.4c0-7.419-18.373-9.445-18.373-19.042c0-5.698,7.717-10.496,17.391-10.496
		c5.657,0,13.808,2.551,13.808,7.123c0,2.024-2.067,3.373-5.002,3.373c-5.437,0-5.216-7.123-11.954-7.123
		c-3.697,0-5.871,2.851-5.871,5.175c0,6.822,18.369,8.921,18.369,18.891c0,5.398-7.173,10.872-18.259,10.872
		C144.431,87.005,136.387,83.555,136.387,79.435"/>
	<path fill="#006C85" d="M179.512,54.091c3.266-1.199,10.873-5.696,10.873-8.248c0-2.248-4.344-2.399-4.344-5.924
		c0-2.472,3.149-4.197,6.628-4.197c4.13,0,6.415,2.477,6.415,5.098c0,6.9-10.004,12.072-18.045,15.071L179.512,54.091z"/>
	<path d="M134.998,116.819l0.555-0.141h4.237c5.071,0,4.885-7.604-0.093-7.604h-4.189l-0.51-0.138l0.138,0.555v6.819
		L134.998,116.819z M136.659,123.902h-1.15l-0.51-0.138l0.138,0.555v10.702c0,1.705,0.6,2.81,1.664,3.362v0.275h-13.874v-0.275
		c1.061-0.553,1.661-1.657,1.661-3.362v-29.586c0-1.704-0.6-2.813-1.661-3.362v-0.279h18.755c3.503,0,6.083,0.692,8.526,2.538
		c2.766,2.07,3.872,5.207,3.872,8.065c0,4.881-1.926,8.497-5.65,10.092C146.212,123.437,142.836,123.902,136.659,123.902"/>
	<path d="M95.976,100.739c12.43,0,20.936,8.477,20.936,19.077c0,11.707-8.438,19.449-20.936,19.449s-20.932-8.48-20.932-19.077
		C75.044,108.482,83.55,100.739,95.976,100.739 M95.976,131.215c6.036,0,9.598-5.429,9.598-11.215c0-5.81-3.565-11.215-9.598-11.215
		c-6.029,0-9.595,5.433-9.595,11.215C86.381,125.814,89.944,131.215,95.976,131.215"/>
	<path d="M181.703,101.793h8.871v9.311h-0.279c-0.414-0.875-1.661-1.475-2.904-1.475h-6.808c0,0,0,0.045-0.541-0.088l0.168,0.504
		v24.972c0,1.709,0.6,2.813,1.661,3.366v0.275h-0.169h-13.704h-0.166v-0.275c1.058-0.553,1.657-1.657,1.657-3.366v-24.972
		l0.169-0.551l-0.534,0.134h-7.001c-1.24,0-2.483,0.599-2.9,1.475h-0.275v-9.311h9.05H181.703z"/>
	<path d="M251.535,100.88c2.353,0,5.351,0.642,7.19,1.242c1.936,0.644,3.365,1.013,3.965-0.229h0.279v10.18
		c-2.771-1.795-7.331-3.454-10.925-3.454c-1.933,0-4.007,0.504-4.007,2.44c0,2.72,3.132,3.184,5.761,3.965
		c5.987,1.75,11.795,3.917,11.795,11.472c0,8.665-6.311,12.905-15.854,12.905c-3.5,0-7.413-0.966-8.939-1.428
		c-1.196-0.373-2.395-0.231-2.901,0.688h-0.275v-11.519c2.211,1.475,7.189,4.286,11.796,4.286c2.625,0,4.978-0.97,4.978-3.178
		c0-2.303-4.058-3.501-6.686-4.194c-2.16-0.553-10.598-2.488-10.598-11.293C237.114,105.071,244.073,100.88,251.535,100.88"/>
	<path d="M213.677,139.265c-15.148,0-15.62-10.601-15.62-13.479v-20.352c0-1.704-0.631-2.854-1.664-3.362v-0.279h13.877v0.279
		c-1.062,0.549-1.665,1.659-1.665,3.362v19.604c0,1.943,0.266,6.176,5.072,6.176c4.802,0,5.063-4.233,5.063-6.176v-19.604
		c0-1.704-0.599-2.813-1.657-3.362v-0.279h13.87v0.279c-1.034,0.508-1.657,1.659-1.657,3.362v20.352
		C229.297,128.665,228.821,139.265,213.677,139.265"/>
</g>
</svg>
